<svg width="30" height="30" viewBox="0 0 30 30" fill="none" xmlns="http://www.w3.org/2000/svg">
<g clip-path="url(#clip0_13_373)">
<path d="M24.1957 9.12858C22.0133 7.41143 18.9221 7.88684 16.4731 8.49301C16.0793 8.59083 15.6753 8.63797 15.2704 8.65571C15.206 8.33235 15.1259 8.00797 15.0281 7.68613L16.9206 7.40434C19.3448 7.04347 21.2165 5.17173 21.5774 2.74755L21.8567 0.871754C21.881 0.806373 21.8901 0.738457 21.8866 0.669527L21.9859 0L19.2384 0.409015C16.8142 0.770387 14.9424 2.64162 14.5816 5.0658L14.4168 6.17222C13.8553 5.09419 13.0474 4.15097 11.9329 3.55645C11.685 3.42417 11.3789 3.51844 11.2466 3.76527C11.1148 4.0126 11.2086 4.31924 11.4554 4.45101C13.0028 5.27614 13.8563 6.94514 14.2293 8.62276C13.9926 8.59286 13.758 8.5513 13.5263 8.49352C11.0773 7.88735 7.98512 7.41143 5.80371 9.12909C3.84936 10.6673 2.9107 13.7119 2.93503 18.4366C2.95277 21.9272 4.96287 25.9539 7.82344 28.2291C9.71241 29.7319 11.7438 30.295 13.6946 29.8545C14.5491 29.6619 15.4503 29.6619 16.3043 29.8545C16.7361 29.9518 17.171 30 17.6074 30C19.1461 30 20.7036 29.3999 22.1755 28.2291C25.036 25.9534 27.0456 21.9266 27.0639 18.4366C27.0887 13.7114 26.15 10.6668 24.1957 9.12858ZM16.7711 6.40131L16.3266 6.46771L20.6403 2.15404L20.5739 2.59854C20.2799 4.57823 18.7513 6.10684 16.7711 6.40131ZM19.3879 1.41204L20.0473 1.31371L15.4863 5.87471L15.5846 5.21481C15.8791 3.23512 17.4077 1.70702 19.3879 1.41204ZM21.545 27.4359C20.4015 28.3462 18.6043 29.3345 16.5278 28.8652C16.0281 28.7527 15.5141 28.6964 14.9997 28.6964C14.4858 28.6964 13.9718 28.7527 13.4721 28.8652C11.3997 29.3335 9.59837 28.3462 8.45496 27.4359C5.86048 25.3716 3.96542 21.585 3.94921 18.431C3.9264 14.0393 4.73835 11.2573 6.43066 9.92533C7.86399 8.79762 9.9785 8.65976 13.2836 9.47728C13.6505 9.56801 14.0251 9.61819 14.4016 9.64961C14.4305 9.90911 14.4498 10.1651 14.4579 10.4134C14.4665 10.6876 14.6915 10.904 14.9637 10.904C14.9693 10.904 14.9744 10.904 14.9799 10.904C15.2602 10.8949 15.4792 10.6612 15.4706 10.3815C15.4629 10.1468 15.4447 9.90505 15.4199 9.66076C15.8563 9.63542 16.2911 9.58271 16.7163 9.47779C20.0214 8.66078 22.1354 8.79863 23.5692 9.92583C25.2621 11.2578 26.0735 14.0403 26.0507 18.432C26.035 21.5845 24.1394 25.3716 21.545 27.4359Z" fill="black"/>
<path d="M10.0307 10.2319C7.51533 10.2319 5.46924 12.5056 5.46924 15.3003C5.46924 15.58 5.69579 15.8071 5.97607 15.8071C6.25635 15.8071 6.48291 15.58 6.48291 15.3003C6.48291 13.0646 8.07487 11.2456 10.0307 11.2456C10.311 11.2456 10.5376 11.0185 10.5376 10.7388C10.5376 10.459 10.311 10.2319 10.0307 10.2319Z" fill="black"/>
<path d="M16.4569 10.3806C16.0454 10.7921 15.499 11.0187 14.9187 11.0187C14.3384 11.0187 13.791 10.7921 13.3799 10.3806C13.1818 10.1824 12.8614 10.1824 12.6633 10.3806C12.4651 10.5787 12.4651 10.8996 12.6633 11.0972C13.2659 11.6998 14.0677 12.0323 14.9187 12.0323C15.7697 12.0323 16.571 11.7004 17.1736 11.0972C17.3718 10.8991 17.3718 10.5782 17.1736 10.3806C16.9754 10.1824 16.6551 10.1824 16.4569 10.3806Z" fill="black"/>
</g>
<defs>
<clipPath id="clip0_13_373">
<rect width="30" height="30" fill="white"/>
</clipPath>
</defs>
</svg>
