<svg width="13" height="15" viewBox="0 0 13 15" fill="none" xmlns="http://www.w3.org/2000/svg">
<path d="M11.8984 14.4913H11.678V13.8913C11.678 12.9929 11.2715 12.1757 10.6144 11.6947C11.2715 11.2137 11.678 10.3969 11.678 9.49812V8.89812H11.8984C12.0202 8.89812 12.1187 8.78448 12.1187 8.64389C12.1187 8.50329 12.0202 8.38965 11.8984 8.38965H11.678H11.4577H8.37293H8.15259H7.93225C7.81041 8.38965 7.71191 8.50329 7.71191 8.64389C7.71191 8.78448 7.81041 8.89812 7.93225 8.89812H8.15259V9.49812C8.15259 10.3966 8.55912 11.2137 9.21617 11.6947C8.55912 12.1757 8.15259 12.9926 8.15259 13.8913V14.4913H7.93225C7.81041 14.4913 7.71191 14.605 7.71191 14.7456C7.71191 14.8862 7.81041 14.9998 7.93225 14.9998H8.15259H8.37293H11.4577H11.678H11.8984C12.0202 14.9998 12.1187 14.8862 12.1187 14.7456C12.1187 14.605 12.0202 14.4913 11.8984 14.4913ZM8.59327 9.49812V8.89812H11.2373V9.49812C11.2373 10.3419 10.7894 11.0993 10.0922 11.4405H9.73859C9.04122 11.0993 8.59327 10.3422 8.59327 9.49812ZM8.59327 13.8913C8.59327 13.0475 9.04122 12.2902 9.73837 11.949H10.092C10.7894 12.2902 11.2373 13.0473 11.2373 13.8913V14.4913H8.59327V13.8913Z" fill="#ED145B"/>
<path d="M9.91536 8.13597V5.33936H7.93231H7.49163H5.94926H5.50858H3.96621H3.52553H1.54248V7.62749V8.13597V9.91563V10.4241V12.7122H3.52553H3.96621H5.94926V10.4241V9.91563V8.13597H7.49163H7.93231H9.91536ZM3.96621 5.84783H5.50858V7.62749H3.96621V5.84783ZM1.98316 5.84783H3.52553V7.62749H1.98316V5.84783ZM1.98316 8.13597H3.52553V9.91563H1.98316V8.13597ZM3.52553 12.2038H1.98316V10.4241H3.52553V12.2038ZM5.50858 12.2038H3.96621V10.4241H5.50858V12.2038ZM5.50858 9.91563H3.96621V8.13597H5.50858V9.91563ZM7.49163 7.62749H5.94926V5.84783H7.49163V7.62749ZM7.93231 5.84783H9.47469V7.62749H7.93231V5.84783Z" fill="#ED145B"/>
<path d="M6.83051 13.9831H0.440678V4.0678H11.0169V7.11864C11.0169 7.25924 11.1154 7.37288 11.2373 7.37288C11.3591 7.37288 11.4576 7.25924 11.4576 7.11864V3.81356V1.27119C11.4576 1.13059 11.3591 1.01695 11.2373 1.01695H10.1356V0.254237C10.1356 0.113644 10.0371 0 9.91525 0H8.37288C8.25103 0 8.15254 0.113644 8.15254 0.254237V1.01695H3.30508V0.254237C3.30508 0.113644 3.20659 0 3.08475 0H1.54237C1.42053 0 1.32203 0.113644 1.32203 0.254237V1.01695H0.220339C0.0984915 1.01695 0 1.13059 0 1.27119V3.81356V14.2373C0 14.3779 0.0984915 14.4915 0.220339 14.4915H6.83051C6.95236 14.4915 7.05085 14.3779 7.05085 14.2373C7.05085 14.0967 6.95236 13.9831 6.83051 13.9831ZM8.59322 0.508475H9.69492V1.27119V2.0339H8.59322V1.27119V0.508475ZM1.76271 0.508475H2.86441V1.27119V2.0339H1.76271V1.27119V0.508475ZM0.440678 1.52542H1.32203V2.28814C1.32203 2.42873 1.42053 2.54237 1.54237 2.54237H3.08475C3.20659 2.54237 3.30508 2.42873 3.30508 2.28814V1.52542H8.15254V2.28814C8.15254 2.42873 8.25103 2.54237 8.37288 2.54237H9.91525C10.0371 2.54237 10.1356 2.42873 10.1356 2.28814V1.52542H11.0169V3.55932H0.440678V1.52542Z" fill="#ED145B"/>
</svg>
