<svg width="56" height="56" viewBox="0 0 56 56" fill="none" xmlns="http://www.w3.org/2000/svg">
<rect width="56" height="56" rx="5" fill="white"/>
<path fill-rule="evenodd" clip-rule="evenodd" d="M42.667 12H13.334C12.597 12 12 12.597 12 13.333V42.667C12 43.403 12.597 44 13.334 44H29V32H25V27H29V23C29 18.867 31.617 16.833 35.304 16.833C37.07 16.833 38.588 16.965 39.03 17.023V21.343L36.473 21.344C34.468 21.344 34 22.297 34 23.695V27H39L38 32H34L34.08 44H42.667C43.403 44 44 43.403 44 42.667V13.333C44 12.597 43.403 12 42.667 12Z" fill="#3B5998"/>
</svg>
