<svg width="16" height="16" viewBox="0 0 16 16" fill="none" xmlns="http://www.w3.org/2000/svg">
<path d="M15.9562 2.36118L16 1.69025L14.3952 1.58782L14.2915 0L13.6135 0.0433306L13.728 1.79732L13.2363 2.28379L13.1603 1.11928L12.4822 1.16261L12.5967 2.91664L12.176 3.33293C10.883 2.19856 9.18322 1.50857 7.32326 1.50857C3.28526 1.50857 0 4.75892 0 8.75422C0 12.7495 3.28526 16 7.32326 16C11.3612 16 14.6462 12.7495 14.6462 8.75422C14.6462 6.84055 13.8922 5.09809 12.6631 3.80157L13.099 3.37029L14.825 3.48046L14.8688 2.80953L13.7386 2.7374L14.2302 2.251L15.9562 2.36118ZM13.9668 8.75422C13.9668 12.3789 10.9864 15.3278 7.32326 15.3278C3.65982 15.3278 0.679412 12.3789 0.679412 8.75422C0.679412 5.12966 3.65982 2.18083 7.32326 2.18083C8.99579 2.18083 10.5258 2.79582 11.6949 3.80895L10.7342 4.75954C9.8127 3.98802 8.62201 3.52199 7.32326 3.52199C4.40725 3.52199 2.03494 5.86919 2.03494 8.75422C2.03494 11.6394 4.40725 13.9866 7.32326 13.9866C10.239 13.9866 12.6113 11.6394 12.6113 8.75422C12.6113 7.39569 12.0851 6.15657 11.224 5.22547L12.1826 4.27703C13.2888 5.45159 13.9668 7.02593 13.9668 8.75422ZM7.31758 9.09064L9.35451 7.0752C9.73936 7.53025 9.97153 8.11579 9.97153 8.75419C9.97153 10.1991 8.78358 11.3747 7.32326 11.3747C5.86289 11.3747 4.67461 10.1991 4.67461 8.75419C4.67461 7.30929 5.86289 6.13388 7.32326 6.13388C7.89381 6.13388 8.42233 6.31389 8.85515 6.61874L6.83726 8.61535L7.31758 9.09064ZM9.34106 6.13796C8.7809 5.71399 8.08134 5.46168 7.32326 5.46168C5.48803 5.46168 3.9952 6.93878 3.9952 8.75422C3.9952 10.5699 5.48803 12.0469 7.32326 12.0469C9.15811 12.0469 10.6509 10.5699 10.6509 8.75422C10.6509 7.93048 10.3436 7.17646 9.83641 6.59843L10.7433 5.70109C11.4816 6.51001 11.9318 7.58103 11.9318 8.75422C11.9318 11.2687 9.86436 13.3144 7.32323 13.3144C4.78171 13.3144 2.71432 11.2687 2.71432 8.75422C2.71432 6.2398 4.78175 4.19422 7.32323 4.19422C8.43468 4.19422 9.45551 4.58557 10.2523 5.23628L9.34106 6.13796Z" fill="#ED145B"/>
</svg>
