<svg width="16" height="19" viewBox="0 0 16 19" fill="none" xmlns="http://www.w3.org/2000/svg">
<path d="M13.3353 14.4094L12.783 14.2713L13.7451 6.25375C13.7466 6.24156 13.7473 6.22933 13.7473 6.21706C13.7473 2.78898 10.9584 0 7.53024 0C4.10211 0 1.31318 2.78898 1.31318 6.21706C1.31318 6.22933 1.31391 6.24156 1.31535 6.25375L2.27746 14.2713L1.72514 14.4094C0.709402 14.6633 0 15.5719 0 16.619V18.0356C0 18.5674 0.432609 19 0.964363 19H14.0961C14.6279 19 15.0605 18.5674 15.0605 18.0356V16.619C15.0605 15.5719 14.3511 14.6633 13.3353 14.4094ZM1.92873 6.19892C1.93853 3.1185 4.4476 0.615551 7.53024 0.615551C10.6129 0.615551 13.1219 3.1185 13.1318 6.19892L12.1811 14.1208L10.5693 13.7179C10.1209 13.6058 9.80778 13.2047 9.80778 12.7426V12.68C11.18 11.7189 12.1058 9.91767 12.1058 7.85857C12.1058 7.77174 12.1005 6.65718 12.0932 6.52812C12.084 6.36512 11.9492 6.23762 11.7859 6.23762C8.63799 6.23762 6.07639 5.23222 5.05909 4.63813C4.91226 4.55245 4.72386 4.6019 4.63809 4.74869C4.55237 4.89548 4.6019 5.08396 4.74865 5.16968C6.03461 5.92065 8.54643 6.79338 11.4835 6.85022C11.4857 7.05795 11.4877 7.33617 11.4889 7.55076H10.5523C10.2915 7.15557 9.84373 6.89417 9.33581 6.89417C8.81727 6.89417 8.36144 7.16673 8.10323 7.57587C7.9429 7.45703 7.74466 7.38661 7.5302 7.38661C7.31574 7.38661 7.11749 7.45703 6.95716 7.57587C6.69896 7.16673 6.24312 6.89417 5.72458 6.89417C5.21671 6.89417 4.76892 7.15557 4.50809 7.55076H3.61509C3.70943 7.22037 3.94548 6.89679 4.24582 6.48589C4.32704 6.37477 4.41104 6.25986 4.49845 6.13643C4.59669 5.99768 4.56382 5.80559 4.42507 5.70739C4.28633 5.60919 4.09423 5.64197 3.99603 5.78072C3.91133 5.90034 3.82873 6.01336 3.74887 6.1226C3.30518 6.72965 2.95464 7.20921 2.95464 7.85853C2.95464 9.91763 3.88043 11.7189 5.2527 12.6799V12.7425C5.2527 13.2047 4.93955 13.6058 4.49114 13.7179L2.87938 14.1208L1.92873 6.19892ZM8.37391 15.2711C8.20923 14.9745 7.89288 14.7732 7.53024 14.7732C7.16776 14.7732 6.85149 14.9743 6.68677 15.2707C6.072 15.0317 5.58986 14.5449 5.35821 13.9234C5.60878 13.6878 5.7815 13.3749 5.8431 13.0272C6.36541 13.2799 6.93467 13.419 7.5302 13.419C8.12572 13.419 8.69503 13.2799 9.2173 13.0272C9.2789 13.375 9.45162 13.6878 9.70227 13.9235C9.47156 14.5389 8.98245 15.0322 8.37391 15.2711ZM7.87905 15.7376C7.87905 15.9299 7.72258 16.0864 7.53024 16.0864C7.3379 16.0864 7.18143 15.9299 7.18143 15.7376C7.18143 15.5452 7.3379 15.3888 7.53024 15.3888C7.72258 15.3888 7.87905 15.5452 7.87905 15.7376ZM5.72462 7.50972C6.1885 7.50972 6.56588 7.88709 6.56588 8.35097C6.56588 8.81485 6.1885 9.19222 5.72462 9.19222C5.26074 9.19222 4.88337 8.81485 4.88337 8.35097C4.88337 7.88709 5.26074 7.50972 5.72462 7.50972ZM5.72462 9.80778C6.52792 9.80778 7.18143 9.15427 7.18143 8.35097C7.18143 8.15863 7.3379 8.00216 7.53024 8.00216C7.72258 8.00216 7.87905 8.15863 7.87905 8.35097C7.87905 9.15427 8.53256 9.80778 9.33585 9.80778C10.1391 9.80778 10.7927 9.15427 10.7927 8.35097C10.7927 8.28839 10.7882 8.22684 10.7806 8.16631H11.4824C11.3547 10.7501 9.63103 12.8035 7.53024 12.8035C5.42945 12.8035 3.70582 10.7501 3.57807 8.16631H4.27993C4.27221 8.22684 4.26782 8.28839 4.26782 8.35097C4.26782 9.15427 4.92133 9.80778 5.72462 9.80778ZM8.4946 8.35097C8.4946 7.88709 8.87198 7.50972 9.33585 7.50972C9.79973 7.50972 10.1771 7.88709 10.1771 8.35097C10.1771 8.81485 9.79973 9.19222 9.33585 9.19222C8.87198 9.19222 8.4946 8.81485 8.4946 8.35097ZM0.615551 18.0356V16.619C0.615551 16.1402 0.818888 15.7011 1.15309 15.3943L2.3933 16.8826C2.54358 17.0629 2.62635 17.2915 2.62635 17.5262V18.3844H0.964363C0.772024 18.3844 0.615551 18.228 0.615551 18.0356ZM3.2419 18.3844V17.5262C3.2419 17.1477 3.10849 16.7792 2.86621 16.4885L1.68197 15.0674C1.74427 15.0435 1.80841 15.0231 1.87448 15.0066L3.11637 14.6962C3.66971 15.2478 4.00264 15.9149 4.32429 16.5609C4.65759 17.2304 4.99749 17.9124 5.57915 18.3845H3.2419V18.3844ZM10.7796 15.7911C10.6284 15.7146 10.4438 15.7749 10.3666 15.9256C10.3046 16.0466 10.2446 16.1673 10.1852 16.2865C9.60169 17.4586 9.14081 18.3844 7.53024 18.3844C5.91967 18.3844 5.45879 17.4586 4.87529 16.2865C4.59271 15.719 4.27804 15.0884 3.79692 14.5259L4.64047 14.315C4.70474 14.299 4.76715 14.2791 4.82777 14.2559C5.15183 15.0241 5.78454 15.6157 6.57753 15.8869C6.64951 16.348 7.04929 16.7019 7.53024 16.7019C8.01135 16.7019 8.41126 16.3478 8.48307 15.8865C9.26658 15.6165 9.90815 15.0175 10.2323 14.2557C10.293 14.279 10.3556 14.299 10.42 14.315L11.2626 14.5257C11.1617 14.6436 11.0643 14.7687 10.9692 14.9031C10.871 15.0419 10.9039 15.234 11.0427 15.3321C11.0967 15.3704 11.1587 15.3887 11.2202 15.3887C11.3167 15.3887 11.4117 15.3434 11.4717 15.2587C11.6212 15.0474 11.7762 14.8628 11.9436 14.6959L13.186 15.0065C13.2521 15.023 13.3163 15.0435 13.3785 15.0673L12.1943 16.4884C11.952 16.7791 11.8186 17.1476 11.8186 17.5261V18.3844H9.48145C10.0631 17.9124 10.403 17.2304 10.7363 16.5609C10.7946 16.4437 10.8536 16.3251 10.9161 16.2032C10.9918 16.0517 10.9307 15.8676 10.7796 15.7911ZM14.4449 18.0356C14.4449 18.2279 14.2885 18.3844 14.0961 18.3844H12.4341V17.5262C12.4341 17.2914 12.5169 17.0628 12.6672 16.8825L13.9074 15.3942C14.2416 15.701 14.4449 16.1401 14.4449 16.6189V18.0356Z" fill="#ED145B"/>
<path d="M6.46009 11.0737C6.80324 11.3195 7.20577 11.4494 7.62422 11.4494C8.04268 11.4494 8.44521 11.3195 8.78836 11.0737C8.92653 10.9747 8.95833 10.7824 8.85931 10.6442C8.76029 10.506 8.56803 10.4742 8.4299 10.5733C8.19193 10.7437 7.91333 10.8339 7.62426 10.8339C7.3352 10.8339 7.0566 10.7438 6.81863 10.5733C6.6805 10.4742 6.4882 10.506 6.38922 10.6442C6.29012 10.7824 6.32192 10.9747 6.46009 11.0737Z" fill="#ED145B"/>
<path d="M9.98082 2.69974C10.5918 3.12681 11.0838 3.70694 11.4036 4.3774C11.4564 4.48808 11.5667 4.55275 11.6816 4.55275C11.726 4.55275 11.7712 4.54311 11.8139 4.52271C11.9673 4.44954 12.0324 4.26582 11.9592 4.11243C11.5937 3.34607 11.0316 2.68312 10.3335 2.19519C10.1942 2.09781 10.0023 2.13179 9.90494 2.27115C9.80752 2.41047 9.8415 2.60236 9.98082 2.69974Z" fill="#ED145B"/>
<path d="M8.14295 1.97237C8.34961 2.00208 8.55574 2.04735 8.75559 2.10705C8.78497 2.11584 8.8146 2.11998 8.84378 2.11998C8.97629 2.11998 9.0987 2.03368 9.13859 1.90023C9.18722 1.73735 9.09464 1.5659 8.93172 1.51723C8.70294 1.44891 8.46698 1.39704 8.23049 1.36306C8.06211 1.33876 7.90625 1.45568 7.88208 1.62393C7.85787 1.79226 7.97466 1.94824 8.14295 1.97237Z" fill="#ED145B"/>
</svg>
