<svg width="56" height="56" viewBox="0 0 56 56" fill="none" xmlns="http://www.w3.org/2000/svg">
<rect width="56" height="56" rx="5" fill="white"/>
<g clip-path="url(#clip0_205_229)">
<path d="M19.0218 24.4262C20.2653 20.5406 23.8062 17.75 28.0002 17.75C30.2548 17.75 32.2912 18.575 33.8912 19.925L38.5457 15.125C35.7093 12.575 32.073 11 28.0002 11C21.6937 11 16.2639 14.7102 13.6536 20.1438L19.0218 24.4262Z" fill="#EA4335"/>
<path d="M33.3873 35.7676C31.9343 36.7352 30.0878 37.2503 27.9997 37.2503C23.8217 37.2503 20.2919 34.481 19.0357 30.6187L13.6497 34.8359C16.2568 40.2791 21.6864 44.0003 27.9997 44.0003C31.9102 44.0003 35.6468 42.5667 38.4453 39.8748L33.3873 35.7676Z" fill="#34A853"/>
<path d="M38.4456 39.8749C41.3722 37.0596 43.2727 32.868 43.2727 27.5005C43.2727 26.5255 43.1273 25.4755 42.9091 24.5005H28V30.8755H36.5818C36.1584 33.0192 35.0217 34.6796 33.3876 35.7678L38.4456 39.8749Z" fill="#4A90E2"/>
<path d="M19.036 30.6181C18.7178 29.6397 18.5455 28.5912 18.5455 27.4998C18.5455 26.4249 18.7126 25.3916 19.0216 24.426L13.6533 20.1436C12.5821 22.3579 12 24.8534 12 27.4998C12 30.1391 12.593 32.6288 13.65 34.8354L19.036 30.6181Z" fill="#FBBC05"/>
</g>
<defs>
<clipPath id="clip0_205_229">
<rect width="32" height="33" fill="white" transform="translate(12 11)"/>
</clipPath>
</defs>
</svg>
