<svg width="52" height="52" viewBox="0 0 52 52" fill="none" xmlns="http://www.w3.org/2000/svg">
<path d="M23.593 48.1086C24.2398 48.7554 25.1093 49.1159 26.0212 49.1159C26.9225 49.1159 27.8132 48.7448 28.4494 48.1086L47.5041 29.0539C50.3989 26.1592 51.9894 22.3101 52 18.2277C52 14.1347 50.4095 10.2856 47.5147 7.3908C44.6199 4.49602 40.7814 2.90548 36.6884 2.90548C32.6697 2.90548 28.8842 4.44301 26.0106 7.24235C23.1264 4.4324 19.3303 2.88428 15.301 2.88428C11.2186 2.88428 7.3801 4.47482 4.48532 7.35899C1.59054 10.2538 0 14.1029 0 18.1959C0 22.2782 1.60114 26.1273 4.49592 29.0221L23.593 48.1086ZM6.33034 9.20402C8.72675 6.80761 11.9184 5.48216 15.3116 5.48216C18.7047 5.48216 21.907 6.80761 24.314 9.21462L25.0987 9.99929C25.3426 10.2432 25.6713 10.381 26.0212 10.381C26.3605 10.381 26.6998 10.2432 26.9437 9.99929L27.7072 9.23583C30.1142 6.82881 33.3059 5.50336 36.7096 5.50336C40.1028 5.50336 43.2945 6.82881 45.6909 9.22522C48.0979 11.6322 49.4127 14.8239 49.4127 18.2171C49.4127 21.6102 48.0873 24.8019 45.6803 27.2089L26.615 46.2742C26.3075 46.5817 25.7455 46.5817 25.4274 46.2742L6.34095 27.1877C3.93393 24.7807 2.60848 21.589 2.60848 18.1959C2.60848 14.8027 3.93393 11.611 6.33034 9.20402Z" fill="black"/>
</svg>
