<svg width="14" height="12" viewBox="0 0 14 12" fill="none" xmlns="http://www.w3.org/2000/svg">
<path d="M13.9893 7.60575C13.8946 6.63546 13.1704 5.93237 12.2639 5.93237C11.6954 5.93237 11.2182 6.2762 10.9152 6.69455C10.6124 6.27597 10.135 5.93213 9.56641 5.93213C8.66019 5.93213 7.93598 6.63523 7.84106 7.60551C7.8311 7.66887 7.80689 7.89501 7.89469 8.24834C8.02425 8.76991 8.32205 9.24331 8.7563 9.61752L10.9154 11.4651L13.0748 9.61704C13.5085 9.2433 13.8063 8.77014 13.9359 8.24858C14.0235 7.89501 13.9993 7.66911 13.9893 7.60575ZM13.4751 8.1342C13.3695 8.55967 13.1241 8.94835 12.7656 9.25707L10.9154 10.8403L9.06573 9.25754C8.7067 8.94811 8.46134 8.55967 8.35575 8.13396C8.28409 7.84589 8.30972 7.68358 8.30972 7.68358L8.31351 7.65867C8.37165 7.03649 8.82084 6.40671 9.56689 6.40671C10.0863 6.40671 10.5099 6.83645 10.6988 7.26239L10.9154 7.75121L11.1323 7.26239C11.3212 6.83645 11.7445 6.40695 12.2642 6.40695C13.0105 6.40695 13.4594 7.03672 13.5206 7.68026C13.5209 7.68168 13.5472 7.84447 13.4751 8.1342Z" fill="#ED145B"/>
<path d="M6.01986 5.66013C6.25763 5.87227 6.56967 5.97834 6.88195 5.97834C7.19351 5.97834 7.50508 5.87251 7.74213 5.66108L13.2884 0.763606V4.98337C13.2884 5.11436 13.3944 5.22066 13.5257 5.22066C13.6569 5.22066 13.7629 5.11436 13.7629 4.98337V0.237529C13.7629 0.235631 13.7618 0.23397 13.7618 0.232072C13.761 0.205732 13.7572 0.179156 13.7475 0.153528C13.7468 0.151867 13.7456 0.15068 13.7449 0.149019C13.7425 0.14285 13.7383 0.138104 13.7354 0.132172C13.7257 0.112714 13.7141 0.0949168 13.6996 0.0790182C13.6934 0.072374 13.687 0.0666791 13.6801 0.0607468C13.6654 0.047933 13.6495 0.0372549 13.632 0.0282378C13.6241 0.0242038 13.617 0.0199326 13.6087 0.0168478C13.5826 0.0068815 13.5551 0 13.5257 0H0.237292C0.207868 0 0.180342 0.0068815 0.154003 0.0168478C0.145697 0.0199326 0.138579 0.0242038 0.130748 0.0282378C0.113188 0.0372549 0.0972898 0.047933 0.0825777 0.0607468C0.0756962 0.0666791 0.0692893 0.072374 0.0631197 0.0790182C0.0486449 0.0949168 0.0370176 0.112714 0.0272886 0.132172C0.0244411 0.137867 0.0204071 0.14285 0.0177969 0.148782C0.0173223 0.150443 0.0158986 0.15163 0.0151867 0.153291C0.00545772 0.178918 0.00166105 0.205495 0.000949169 0.231834C0.00118646 0.233733 0 0.235394 0 0.237292V9.49168C0 9.4924 0.000474584 9.49311 0.000474584 9.49382C0.000711876 9.51921 0.00450855 9.5446 0.0130511 9.56952C0.0140002 9.5726 0.0161359 9.57474 0.0173223 9.57758C0.0204071 9.58565 0.025153 9.5923 0.0291869 9.59989C0.0384413 9.61769 0.0488822 9.63406 0.0619332 9.64853C0.0683401 9.65565 0.0749843 9.66206 0.0823404 9.66823C0.0968152 9.68104 0.112476 9.69125 0.129799 9.70026C0.137867 9.7043 0.144985 9.70904 0.153528 9.71213C0.180105 9.72233 0.207868 9.72898 0.237292 9.72898H7.35606C7.48728 9.72898 7.59335 9.62267 7.59335 9.49168C7.59335 9.3607 7.48728 9.25439 7.35606 9.25439H0.920456C1.99966 8.39919 4.43262 6.45909 5.68267 5.36233L6.01986 5.66013ZM12.8983 0.474584L7.42701 5.30609C7.12636 5.5747 6.63659 5.57447 6.33499 5.30538L5.86562 4.89107C5.8642 4.8894 5.86396 4.88727 5.8623 4.88561C5.85661 4.8792 5.84878 4.87635 5.84261 4.8709L0.864693 0.474584H12.8983ZM0.474584 9.00215V0.763606L5.32412 5.04578C4.00573 6.1976 1.44416 8.23499 0.474584 9.00215Z" fill="#ED145B"/>
</svg>
