<svg width="18" height="18" viewBox="0 0 18 18" fill="none" xmlns="http://www.w3.org/2000/svg">
<g clip-path="url(#clip0_9_108)">
<path d="M8.99997 3.59992C9.23641 3.59986 9.47052 3.55324 9.68894 3.4627C9.90736 3.37216 10.1058 3.23949 10.273 3.07227C10.4401 2.90504 10.5727 2.70652 10.6631 2.48806C10.7535 2.2696 10.8 2.03546 10.8 1.79902C10.7999 1.56258 10.7533 1.32847 10.6627 1.11006C10.5722 0.891637 10.4395 0.69319 10.2723 0.526045C10.1051 0.358899 9.90657 0.226329 9.68811 0.135902C9.46965 0.0454759 9.23551 -0.0010356 8.99907 -0.000976506C8.52156 -0.000857152 8.06366 0.188947 7.72609 0.526681C7.38853 0.864415 7.19895 1.32241 7.19907 1.79992C7.19919 2.27743 7.389 2.73534 7.72673 3.0729C8.06446 3.41047 8.52246 3.60004 8.99997 3.59992ZM14.3802 10.4246C14.0337 8.82712 13.428 6.20542 12.5424 5.12002C11.6811 4.06432 9.94587 4.02022 8.99997 4.02022C8.05407 4.02022 6.31887 4.06432 5.45757 5.12002C4.57197 6.20542 3.96627 8.82712 3.61977 10.4246C3.42807 11.3093 4.65837 11.6342 4.97967 10.7441C5.45757 9.41842 5.82657 8.30512 6.63477 7.38172C7.05957 9.99802 5.49177 14.5511 5.39997 17.0999C5.39982 17.3103 5.47338 17.5141 5.60787 17.6759C5.74236 17.8377 5.92928 17.9472 6.13616 17.9855C6.34303 18.0238 6.55679 17.9884 6.74028 17.8855C6.92377 17.7826 7.06541 17.6186 7.14057 17.4221C7.55187 15.9938 8.99997 12.0194 8.99997 12.0194C8.99997 12.0194 10.4481 15.9938 10.8594 17.4221C10.9345 17.6186 11.0762 17.7826 11.2597 17.8855C11.4432 17.9884 11.6569 18.0238 11.8638 17.9855C12.0707 17.9472 12.2576 17.8377 12.3921 17.6759C12.5266 17.5141 12.6001 17.3103 12.6 17.0999C12.5082 14.5511 10.9404 9.99802 11.3652 7.38262C12.1734 8.30602 12.5424 9.41932 13.0203 10.745C13.3407 11.6342 14.5719 11.3093 14.3802 10.4246Z" fill="#ED145B"/>
</g>
<defs>
<clipPath id="clip0_9_108">
<rect width="18" height="18" fill="white"/>
</clipPath>
</defs>
</svg>
