<svg width="39" height="39" viewBox="0 0 39 39" fill="none" xmlns="http://www.w3.org/2000/svg">
<path d="M27.625 9.75C29.4199 9.75 30.875 8.29493 30.875 6.5C30.875 4.70507 29.4199 3.25 27.625 3.25C25.8301 3.25 24.375 4.70507 24.375 6.5C24.375 8.29493 25.8301 9.75 27.625 9.75Z" fill="white"/>
<path d="M25.6376 17.8036C26.0107 18.3595 26.5457 18.7871 27.1702 19.0284C27.7946 19.2697 28.4782 19.3129 29.1281 19.1523L34.5166 17.8052L33.7317 14.6527L28.3432 15.9998L26.1024 12.641C25.6236 11.9236 24.8806 11.4248 24.0354 11.2532L17.7856 10.002C17.0865 9.86164 16.3605 9.95541 15.72 10.2688C15.0794 10.5822 14.5598 11.0977 14.2415 11.7358L11.5472 17.1243L14.4544 18.5787L17.1486 13.1886L20.345 13.8288L12.0802 27.604H4.875V30.854H12.0802C13.2145 30.854 14.2821 30.2495 14.8671 29.2761L17.9839 24.0826L26.3835 25.7628L29.3345 34.6175L32.4155 33.5888L29.4661 24.7358C29.2841 24.1923 28.9621 23.7063 28.5324 23.3269C28.1028 22.9475 27.5807 22.688 27.0189 22.5746L22.0805 21.5882L24.96 16.788L25.6376 17.8036V17.8036Z" fill="white"/>
</svg>
