<svg width="11" height="15" viewBox="0 0 11 15" fill="none" xmlns="http://www.w3.org/2000/svg">
<path d="M5.17862 0C2.32314 0 0 2.17794 0 4.85496C0 7.24896 1.77125 10.387 3.25716 12.5978C3.353 12.7405 3.554 12.7832 3.70622 12.6933C3.85832 12.6035 3.90396 12.415 3.80807 12.2724C1.1989 8.39008 0.651248 6.09589 0.651248 4.85496C0.651248 2.51458 2.68221 0.610494 5.17867 0.610494C7.67514 0.610494 9.7061 2.51452 9.7061 4.85496C9.7061 8.65569 4.96888 14.4501 4.92102 14.5081C4.81113 14.6416 4.83734 14.8333 4.97968 14.9363C5.03894 14.9792 5.109 15 5.17851 15C5.27587 15 5.37224 14.9592 5.43639 14.8814C5.63733 14.6376 10.3573 8.86407 10.3573 4.85491C10.3572 2.17794 8.03416 0 5.17862 0Z" fill="#ED145B"/>
<path d="M5.17849 3.30678C5.35828 3.30678 5.50409 3.17008 5.50409 3.00154C5.50409 2.83299 5.35828 2.69629 5.17849 2.69629C3.90888 2.69629 2.87598 3.66463 2.87598 4.85489C2.87598 6.04515 3.90888 7.0135 5.17849 7.0135C6.4481 7.0135 7.48101 6.04515 7.48101 4.85489C7.48101 4.37952 7.31935 3.92857 7.01339 3.55073C6.9047 3.41647 6.70044 3.39027 6.55718 3.49217C6.41397 3.59407 6.38597 3.78556 6.49472 3.91987C6.71395 4.19057 6.82981 4.51393 6.82981 4.85489C6.82981 5.70852 6.08903 6.403 5.17849 6.403C4.26796 6.403 3.52717 5.70852 3.52717 4.85489C3.52717 4.00127 4.26801 3.30678 5.17849 3.30678Z" fill="#ED145B"/>
</svg>
