<svg width="30" height="30" viewBox="0 0 30 30" fill="none" xmlns="http://www.w3.org/2000/svg">
<path d="M9.5 12.2529H15C15.276 12.2529 15.5 12.0294 15.5 11.7529C15.5 11.4764 15.276 11.2529 15 11.2529H9.5C9.224 11.2529 9 11.4764 9 11.7529C9 12.0294 9.224 12.2529 9.5 12.2529Z" fill="black"/>
<path d="M17.5 14.7529H7C6.724 14.7529 6.5 14.9764 6.5 15.2529C6.5 15.5294 6.724 15.7529 7 15.7529H17.5C17.776 15.7529 18 15.5294 18 15.2529C18 14.9764 17.776 14.7529 17.5 14.7529Z" fill="black"/>
<path d="M17.5 18.2529H7C6.724 18.2529 6.5 18.4764 6.5 18.7529C6.5 19.0294 6.724 19.2529 7 19.2529H17.5C17.776 19.2529 18 19.0294 18 18.7529C18 18.4764 17.776 18.2529 17.5 18.2529Z" fill="black"/>
<path d="M22.612 0.24707H12.888C9.664 0.24707 6.822 2.35507 5.857 5.40807C2.5155 6.11557 0 9.08607 0 12.6351V18.3076C0 22.1736 3.1565 25.4646 7 25.7301V28.9701C7 29.3081 7.1715 29.5891 7.447 29.7031C7.5285 29.7366 7.6135 29.7536 7.6985 29.7536C7.886 29.7536 8.0735 29.6741 8.2235 29.5236L8.984 28.7631C10.929 26.8181 13.5595 25.7471 16.3905 25.7471H17.112C20.4115 25.7471 23.211 23.5571 24.157 20.5456C27.5085 19.7706 30 16.7191 30 13.3071V7.63507C30 3.56107 26.686 0.24707 22.612 0.24707ZM17.112 24.7466H16.3905C13.292 24.7466 10.4105 25.9221 8.2765 28.0556L8 28.3326V25.2466V24.7466V23.1696C8 22.8931 7.776 22.6696 7.5 22.6696C7.224 22.6696 7 22.8931 7 23.1696V24.7206C3.7 24.4576 1 21.6311 1 18.3071V12.6351C1 9.56657 3.1755 6.99807 6.0645 6.38657L6.3245 6.34307C6.509 6.31207 6.6845 6.28957 6.8545 6.27407C6.994 6.26257 7.1345 6.25507 7.2765 6.25257C7.313 6.25207 7.352 6.24757 7.388 6.24757H17.112C20.6345 6.24707 23.5 9.11307 23.5 12.6351V18.3076C23.5 18.4886 23.4875 18.6666 23.473 18.8436C23.4655 18.9291 23.4575 19.0141 23.4465 19.1001C23.44 19.1546 23.43 19.2076 23.422 19.2611C23.384 19.5056 23.3345 19.7511 23.2675 19.9966L23.191 20.2791C22.3625 22.8676 19.952 24.7466 17.112 24.7466ZM29 13.3071C29 16.0971 27.0725 18.6146 24.407 19.4496C24.4135 19.4101 24.4155 19.3706 24.4215 19.3311C24.439 19.2051 24.4565 19.0796 24.4675 18.9516C24.4875 18.7361 24.5 18.5206 24.5 18.3071V12.6351C24.5 12.1261 24.448 11.6286 24.3495 11.1481C23.6595 7.78457 20.6765 5.24707 17.112 5.24707H7.388C7.3785 5.24707 7.3695 5.24857 7.3595 5.24857C7.2295 5.24907 7.098 5.25257 6.9635 5.26157C7.922 2.86457 10.2605 1.24757 12.888 1.24757H22.612C26.1345 1.24707 29 4.11307 29 7.63507V13.3071Z" fill="black"/>
</svg>
