<svg width="48" height="46" viewBox="0 0 48 46" fill="none" xmlns="http://www.w3.org/2000/svg">
<path d="M48 38.7355C48 38.7146 47.9989 38.6938 47.9968 38.6729C47.8312 37.0357 47.119 35.7531 45.88 34.8609C44.9302 34.1769 43.7101 33.7269 42.0402 33.4447C38.1269 32.7833 36.8153 32.4143 36.1946 32.1686L33.0433 24.0296L37.2353 18.2117C37.3449 18.0597 37.3804 17.8669 37.3321 17.6863C37.2837 17.5056 37.1566 17.3555 36.9854 17.2772L36.2302 16.9317L43.2041 9.27239C43.4384 9.01509 43.4179 8.61825 43.1583 8.38595C42.8989 8.15385 42.4986 8.17393 42.2643 8.43134L35.0261 16.3808L34.3648 16.0782C31.6611 14.8413 28.4264 15.7926 26.8407 18.2909L25.3073 20.7068L24.6965 20.6468C22.007 20.3831 19.6087 19.1165 17.9432 17.0801C16.7404 15.6095 16.0364 13.8636 15.8865 12.038C16.9125 11.6314 19.4752 10.46 21.9543 8.08702C25.0319 5.14119 27.6358 1.1354 27.7451 0.966374C27.9337 0.674553 27.8482 0.286504 27.5538 0.0993832C27.2594 -0.0877378 26.8679 -0.002911 26.6792 0.289015C26.6532 0.329179 24.0437 4.3425 21.0748 7.18415C19.0858 9.08799 17.0049 10.1749 15.8779 10.6754C15.8867 10.5485 15.8965 10.4213 15.9106 10.2941C15.9782 9.68628 15.6587 9.11707 15.0968 8.84376C14.5302 8.56836 13.8748 8.66062 13.4148 9.07764L3.75828 16.3199C3.37928 16.6042 3.05083 16.9353 2.77766 17.2991C1.37417 18.1202 0.399884 19.4765 0.0973861 21.0447C-0.163857 22.3991 0.107832 23.7268 0.824246 24.596L3.58629 27.9476C4.29163 28.8035 5.28828 29.358 6.39266 29.5093C7.54989 29.6678 8.3811 30.6574 8.28498 31.7625C8.16027 33.1969 8.76833 34.5831 9.91164 35.4706L19.7417 43.1016C21.7761 44.7995 24.3775 45.8283 27.068 45.9986C27.0815 45.9996 27.0949 46 27.1084 46C27.1103 46 27.1121 46 27.114 46L39.215 45.8933C43.1625 45.8933 45.7723 45.1221 46.972 43.6011C47.6209 42.7784 47.8244 41.7837 47.5799 40.643C47.8491 40.0593 48 39.4143 48 38.7355ZM46.7338 38.7663C46.7164 40.6611 45.0917 42.1974 43.0973 42.1974H33.6226C34.4778 41.2793 35.6861 40.7281 36.9778 40.71L39.1241 40.6801C39.8909 40.6693 40.6011 40.357 41.1238 39.8006C41.6465 39.2443 41.9102 38.5198 41.8665 37.7607C41.831 37.1447 42.1715 36.5764 42.7341 36.3125L44.4874 35.4903C45.8579 36.1914 46.5724 37.2542 46.7338 38.7663ZM42.8135 34.8867L42.1926 35.1779C41.1615 35.6615 40.5373 36.7034 40.6024 37.8323C40.6262 38.2465 40.4823 38.6417 40.1972 38.9454C39.9121 39.249 39.5246 39.4193 39.1062 39.4252L36.9599 39.4552C34.9492 39.4831 33.0947 40.5244 32.032 42.1975H31.3678C28.8926 42.1975 26.4494 41.6278 24.2555 40.5753C26.0296 37.6671 26.5576 33.8577 25.78 29.5021C25.386 27.2951 24.7539 25.4519 24.3307 24.3701C24.9008 24.4314 25.4889 24.4715 26.095 24.4883C26.3314 24.4949 26.5643 24.4979 26.7933 24.4979C29.0053 24.4978 30.84 24.2135 31.6966 24.0538L31.9257 24.6458H29.7576C29.408 24.6458 29.1245 24.9269 29.1245 25.2734C29.1245 25.6199 29.408 25.901 29.7576 25.901H32.4117L32.8031 26.9121H31.1375C30.7879 26.9121 30.5044 27.1931 30.5044 27.5397C30.5044 27.8862 30.7879 28.1672 31.1375 28.1672H33.2891L33.6806 29.1784H31.8759C31.5264 29.1784 31.2429 29.4594 31.2429 29.8059C31.2429 30.1524 31.5264 30.4335 31.8759 30.4335H34.1665L34.558 31.4445H32.8255C32.476 31.4445 32.1925 31.7256 32.1925 32.0721C32.1925 32.4186 32.476 32.6997 32.8255 32.6997H34.8623L34.8297 32.7578C34.3324 33.6433 34.3962 34.7031 34.9962 35.5234C35.4947 36.2052 36.2666 36.5895 37.0892 36.5895C37.257 36.5895 37.4271 36.5734 37.5973 36.5406C39.1523 36.2413 40.5151 35.6064 41.6531 34.6523C41.7115 34.6623 41.7681 34.672 41.8276 34.6821C42.1765 34.7409 42.5042 34.8094 42.8135 34.8867ZM22.8757 24.1588C23.5796 25.7993 26.806 34.0709 23.1361 39.9829C22.0516 39.3543 21.0434 38.6017 20.1419 37.7354L11.9438 29.8578C13.8183 28.1175 14.7625 26.1106 14.7508 23.8828C14.7385 21.5461 13.6892 19.0517 11.6321 16.4686C10.6901 15.2857 9.75622 14.3678 9.17264 13.833L12.455 11.3712C12.1984 13.3649 12.4784 16.7675 15.8835 20.5649C17.519 22.3889 19.9029 23.607 22.8757 24.1588ZM35.916 33.4067C36.5485 33.6357 37.6157 33.9203 39.9187 34.3457C39.1547 34.804 38.2976 35.1271 37.3559 35.3085C36.8328 35.4089 36.3338 35.2141 36.0213 34.7865C35.7175 34.3712 35.6799 33.8586 35.916 33.4067ZM27.9123 18.9593C29.1604 16.9929 31.7064 16.244 33.8344 17.2179L35.7606 18.0991L32.4305 22.7208C31.8214 21.8353 30.8341 21.2486 29.7007 21.1376L26.7155 20.8448L27.9123 18.9593ZM14.5391 9.97057C14.6291 9.9964 14.6613 10.0741 14.6521 10.1567C14.3436 12.9345 15.1631 15.6739 16.9597 17.8707C18.8398 20.1694 21.5432 21.599 24.5719 21.8958L29.5762 22.3865C30.0672 22.4346 30.5236 22.6246 30.8936 22.9148C28.1614 23.3427 20.6926 24.0388 16.8299 19.7311C14.879 17.5553 13.7861 15.1931 13.6695 12.9C13.6059 11.6501 13.8479 10.7275 13.9889 10.3081C14.0315 10.1811 14.1158 10.0695 14.2345 10.0057C14.3163 9.96178 14.4197 9.93626 14.5391 9.97057ZM4.52217 17.3209L8.14444 14.6041C9.40909 15.741 13.4649 19.7122 13.4846 23.8926C13.4935 25.7695 12.6678 27.479 11.0325 28.9822L4.16312 22.3815C3.52869 21.7738 3.16045 20.9681 3.12638 20.1129C3.08428 19.0517 3.60592 18.0081 4.52217 17.3209ZM39.2093 44.6382L27.1261 44.7446C24.7083 44.5867 22.3735 43.6603 20.5492 42.1347C20.5433 42.1298 20.5374 42.125 20.5313 42.1202L10.6924 34.4825C9.88705 33.8572 9.45879 32.8808 9.54657 31.8702C9.70072 30.0989 8.39144 28.5158 6.56601 28.266C5.77933 28.1582 5.06945 27.7632 4.56701 27.1535L1.80496 23.8019C1.33006 23.2256 1.15228 22.2595 1.34114 21.2804C1.43452 20.7961 1.61199 20.338 1.85983 19.9211C1.85846 20.0015 1.85846 20.0819 1.86162 20.1624C1.90868 21.3422 2.41365 22.451 3.28306 23.2836L19.261 38.6367C22.493 41.7422 26.7928 43.4526 31.368 43.4526H43.0975C44.3039 43.4526 45.4091 43.0304 46.264 42.3326C46.1929 42.5077 46.0971 42.6727 45.9747 42.8279C45.0537 43.9953 42.6532 44.6382 39.2093 44.6382Z" fill="black"/>
</svg>
