<svg width="46" height="46" viewBox="0 0 46 46" fill="none" xmlns="http://www.w3.org/2000/svg">
<g clip-path="url(#clip0_301_96)">
<path d="M38.4689 0.107422H7.58393C3.50709 0.107422 0.19043 3.42021 0.19043 7.49229V38.3412C0.19043 42.4133 3.50709 45.7261 7.58393 45.7261H38.4689C42.5458 45.7261 45.8624 42.4133 45.8624 38.3412V7.49229C45.8624 3.42021 42.5458 0.107422 38.4689 0.107422ZM7.58393 2.13492H38.4689C41.4264 2.13492 43.8326 4.53822 43.8326 7.49229V13.4063H35.601C32.1144 13.4063 31.1273 14.8637 30.2564 16.1493C29.3244 17.5249 28.3608 18.9475 23.0263 18.9475C17.6919 18.9475 16.7282 17.5251 15.7963 16.1493C14.9254 14.8635 13.9383 13.4063 10.4516 13.4063H2.2203V7.49229C2.2203 4.53822 4.62641 2.13492 7.58393 2.13492ZM38.4689 43.6986H7.58393C4.62641 43.6986 2.2203 41.2953 2.2203 38.3412V15.4338H10.4514C12.8607 15.4338 13.3598 16.1705 14.1152 17.2855C15.2287 18.9294 16.6145 20.9751 23.0263 20.9751C29.4382 20.9751 30.824 18.9294 31.9375 17.2855C32.6929 16.1705 33.1919 15.4338 35.601 15.4338H43.8326V38.3412C43.8326 41.2953 41.4264 43.6986 38.4689 43.6986Z" fill="black"/>
<path d="M18.6161 14.1763C18.7918 14.5088 19.1373 14.7169 19.5137 14.7169H22.0273C22.0284 14.7169 22.0296 14.7172 22.0306 14.7172C22.0319 14.7172 22.0331 14.7169 22.0342 14.7169H26.5388C26.9154 14.7169 27.2609 14.5087 27.4364 14.1763L30.949 7.52683C31.1546 7.13741 31.0851 6.65993 30.7769 6.34509C30.6783 6.24415 28.2965 3.87256 23.0264 3.87256C17.7563 3.87256 15.3745 6.24415 15.2757 6.34509C14.9674 6.65993 14.898 7.13741 15.1036 7.52683L18.6161 14.1763V14.1763ZM18.4978 6.70975L19.1067 8.97664C19.2284 9.42935 19.6384 9.72797 20.0864 9.72797C20.1734 9.72797 20.262 9.71668 20.35 9.69307C20.8913 9.54796 21.2124 8.99199 21.0672 8.45123L20.4452 6.13597C20.9181 6.04444 21.4391 5.9742 22.0115 5.9351V8.2172C22.0115 8.77708 22.4659 9.23095 23.0264 9.23095C23.5869 9.23095 24.0413 8.77708 24.0413 8.2172V5.93496C24.6136 5.97406 25.1349 6.0443 25.6077 6.13568L24.9857 8.45108C24.8404 8.99185 25.1615 9.54781 25.7028 9.69293C25.791 9.71653 25.8794 9.72783 25.9664 9.72783C26.4144 9.72783 26.8244 9.42921 26.9461 8.97649L27.5552 6.70917C28.0722 6.92293 28.4721 7.14508 28.7577 7.33031L25.927 12.6894H24.8392L23.9699 10.5006C23.8139 10.1074 23.4366 9.85223 23.0063 9.86077C22.5829 9.86932 22.2094 10.1393 22.0689 10.5382L21.3116 12.6894H20.1257L17.2952 7.33104C17.5817 7.14537 17.9815 6.92307 18.4978 6.70975V6.70975Z" fill="black"/>
</g>
<defs>
<clipPath id="clip0_301_96">
<rect width="45.672" height="45.6187" fill="white" transform="translate(0.19043 0.107422)"/>
</clipPath>
</defs>
</svg>
