<svg width="45" height="50" viewBox="0 0 45 50" fill="none" xmlns="http://www.w3.org/2000/svg">
<path d="M44.2984 29.935L42.0082 27.478C41.0728 26.4746 39.5517 26.4763 38.6163 27.478L26.2483 40.7464L24.5439 47.4526L24.1268 47.9C23.8151 48.2345 23.8142 48.7741 24.122 49.1112L24.118 49.1285L24.1333 49.1242C24.2892 49.2888 24.4917 49.3724 24.695 49.3724C24.9007 49.3724 25.1064 49.288 25.2631 49.1198L25.681 48.6716L31.9313 46.8431L44.2984 33.5747C45.2338 32.5704 45.2338 30.9384 44.2984 29.935ZM28.1038 41.1938L36.3349 32.3635L39.7445 36.0204L31.5134 44.8517L28.1038 41.1938ZM27.379 42.8542L29.9665 45.6301L26.4082 46.6715L27.379 42.8542ZM43.1622 32.3548L40.8808 34.8023L37.4712 31.1453L39.7525 28.6979C40.0619 28.366 40.5642 28.3668 40.8727 28.697L43.163 31.154C43.4707 31.4841 43.4707 32.0238 43.1622 32.3548Z" fill="black"/>
<path d="M22.0986 8.62086C24.8509 8.62086 26.8373 9.3364 28.0017 10.7468C29.3614 12.3942 29.1388 14.5063 29.1372 14.5236L29.1299 19.4383L29.3951 19.6952C29.6836 19.9745 29.8427 20.3487 29.8427 20.7496V23.8057C29.8427 24.4298 29.461 24.9746 28.8937 25.1626C28.4702 25.3031 28.2323 25.7859 28.3625 26.241C28.4927 26.6954 28.9427 26.9514 29.367 26.8109C30.6126 26.398 31.4491 25.191 31.4491 23.8057V20.7496C31.4491 20.003 31.1936 19.2771 30.7371 18.7073V14.6839C30.7789 14.2356 30.9268 11.7114 29.224 9.62864C27.7438 7.81481 25.3467 6.89669 22.0986 6.89669C18.8505 6.89669 16.4542 7.81481 14.9732 9.62778C13.2704 11.7106 13.4183 14.2365 13.46 14.6831V18.7064C13.0036 19.2763 12.7481 20.0021 12.7481 20.7487V23.8048C12.7481 24.754 13.145 25.6393 13.8241 26.2367C14.475 28.9721 15.8137 31.0429 16.3088 31.7446V34.2395C16.3088 34.943 15.9512 35.5895 15.375 35.9275L9.02104 39.6456C8.81372 39.7672 8.6088 39.9086 8.40389 40.0672C4.20355 36.0188 1.60717 30.1653 1.60717 23.7074C1.60717 11.5856 10.7994 1.72417 22.0986 1.72417C33.3978 1.72417 42.59 11.5856 42.59 23.7074C42.59 24.1841 42.95 24.5695 43.3936 24.5695C43.8372 24.5695 44.1972 24.1841 44.1972 23.7074C44.1972 10.6356 34.2841 0 22.0986 0C9.91302 0 0 10.6356 0 23.7074C0 30.5842 2.73138 36.8249 7.16235 41.1836L7.15271 41.1922L7.39137 41.4077C9.2581 43.1923 11.4149 44.6406 13.7959 45.669C13.9293 45.7276 14.0611 45.7906 14.1953 45.8466C14.475 45.9613 14.7602 46.063 15.0455 46.1656C15.3533 46.2768 15.6627 46.3811 15.9753 46.4777C16.1963 46.5458 16.4164 46.6147 16.6398 46.6751C17.2031 46.8294 17.7713 46.9673 18.3458 47.0734C18.3916 47.082 18.4374 47.0863 18.4824 47.0863C18.8674 47.0863 19.2065 46.7897 19.274 46.3699C19.3487 45.9009 19.0554 45.4544 18.6175 45.3751C18.6158 45.3751 18.6134 45.3742 18.6118 45.3742C18.0847 45.2776 17.5696 45.1501 17.0593 45.0121C16.8817 44.9638 16.7041 44.9138 16.5281 44.8604C16.185 44.7569 15.8483 44.6406 15.514 44.5199C15.1138 44.3742 14.7185 44.2156 14.3287 44.0431C14.1656 43.9716 14.0025 43.9026 13.8417 43.8268C13.5091 43.669 13.1788 43.5035 12.8541 43.3267C12.8244 43.3104 12.7955 43.2931 12.7657 43.2776C11.6954 42.6879 10.67 41.9983 9.7057 41.212C9.73463 41.1939 9.76275 41.1776 9.79088 41.1603L16.1448 37.4421C17.2369 36.8025 17.9159 35.5757 17.9159 34.2403V31.1343L17.7287 30.8946C17.7118 30.873 15.9801 28.6239 15.3187 25.5367L15.2456 25.1953L14.9716 25.0048C14.5851 24.7367 14.3536 24.2884 14.3536 23.8048V20.7487C14.3536 20.3478 14.5127 19.9745 14.8012 19.6944L15.0664 19.4375V14.6356L15.0592 14.5227C15.0568 14.502 14.8197 12.4287 16.181 10.764C17.3446 9.34243 19.3351 8.62086 22.0986 8.62086Z" fill="black"/>
</svg>
